

 
http://www.imdb.com/title/tt1830617/



In modern day Portland, Oregon, a police detective inherits the ability to see supernatural creatures. 



Creators:
 Stephen Carpenter, David Greenwalt, Jim Kouf 

Stars:
 David Giuntoli, Russell Hornsby, Bitsie Tulloch


Genres:
  Drama |  Fantasy |  Horror |  Mystery
 
Country:
 USA 

Language:
 English 



Format                                   : Matroska
Format version                           : Version 2
File size                                : 1.13 GiB
Duration                                 : 42mn 51s
Overall bit rate                         : 3 782 Kbps
Encoded date                             : UTC 2013-05-01 03:49:01
Writing application                      : mkvmerge v3.0.0 ('Hang up your Hang-Ups') built on Apr 19 2010 11:58:49
Writing library                          : libebml v0.7.7 + libmatroska v0.8.1

Video
ID                                       : 1
Format                                   : AVC
Format/Info                              : Advanced Video Codec
Format profile                           : High@L4.1
Format settings, CABAC                   : Yes
Format settings, ReFrames                : 8 frames
Codec ID                                 : V_MPEG4/ISO/AVC
Duration                                 : 42mn 51s
Bit rate                                 : 3 323 Kbps
Width                                    : 1 280 pixels
Height                                   : 720 pixels
Display aspect ratio                     : 16:9
Frame rate                               : 23.976 fps
Color space                              : YUV
Chroma subsampling                       : 4:2:0
Bit depth                                : 8 bits
Scan type                                : Progressive
Bits/(Pixel*Frame)                       : 0.150
Stream size                              : 1 019 MiB (88%)
Writing library                          : x264 core 130 r2273 b3065e6
Encoding settings                        : cabac=1 / ref=8 / deblock=1:1:1 / analyse=0x3:0x133 / me=umh / subme=9 / psy=1 / psy_rd=1.00:0.00 / mixed_ref=1 / me_range=20 / chroma_me=1 / trellis=1 / 8x8dct=1 / cqm=0 / deadzone=21,11 / fast_pskip=0 / chroma_qp_offset=-2 / threads=14 / lookahead_threads=1 / sliced_threads=0 / nr=0 / decimate=1 / interlaced=0 / bluray_compat=0 / constrained_intra=0 / bframes=5 / b_pyramid=2 / b_adapt=2 / b_bias=0 / direct=3 / weightb=1 / open_gop=0 / weightp=2 / keyint=250 / keyint_min=23 / scenecut=40 / intra_refresh=0 / rc_lookahead=60 / rc=crf / mbtree=1 / crf=18.0 / qcomp=0.60 / qpmin=0 / qpmax=69 / qpstep=4 / ip_ratio=1.40 / aq=1:1.00
Language                                 : English
Default                                  : No
Forced                                   : No
Matrix coefficients                      : BT.709-5, BT.1361, IEC 61966-2-4 709, SMPTE RP177

Audio
ID                                       : 2
Format                                   : AC-3
Format/Info                              : Audio Coding 3
Mode extension                           : CM (complete main)
Format settings, Endianness              : Big
Codec ID                                 : A_AC3
Duration                                 : 42mn 51s
Bit rate mode                            : Constant
Bit rate                                 : 384 Kbps
Channel(s)                               : 6 channels
Channel positions                        : Front: L C R, Side: L R, LFE
Sampling rate                            : 48.0 KHz
Bit depth                                : 16 bits
Compression mode                         : Lossy
Stream size                              : 118 MiB (10%)
Default                                  : Yes
Forced                                   : No


 
http://addpix.net/viewer.php?file=48857177706239728742.jpg